# xmcd CD database file
#
# Track frame offsets:
#	150
#	20600
#	39542
#	60080
#
# Disc length: 1050 seconds
#
# Revision: 1
# Processed by: cddbd v1.5PL3 Copyright (c) Steve Scherf et al.
# Submitted via: CDex 1.51
#
DISCID=26041804
DTITLE=北原愛子 - 向日葵のように
DYEAR=2003
DGENRE=JPop
TTITLE0=向日葵のように
TTITLE1=僕は君だけの太陽になる
TTITLE2=向日葵のように -instrumental-
TTITLE3=僕は君だけの太陽になる -instrumental-
EXTD=YEAR: 2003
EXTT0=
EXTT1=
EXTT2=
EXTT3=
PLAYORDER=
